<svg width="90" height="90" viewBox="0 0 90 90" fill="none" xmlns="http://www.w3.org/2000/svg">
<path d="M33.7503 45L41.2503 52.5L56.2503 37.5M29.3806 17.6139C32.0714 17.3992 34.6258 16.3411 36.6803 14.5903C41.4746 10.5046 48.5261 10.5046 53.3204 14.5903C55.3749 16.3411 57.9293 17.3992 60.6201 17.6139C66.8992 18.115 71.8853 23.1011 72.3864 29.3802C72.6011 32.071 73.6592 34.6254 75.41 36.6799C79.4957 41.4742 79.4957 48.5257 75.41 53.32C73.6592 55.3745 72.6011 57.9289 72.3864 60.6197C71.8853 66.8988 66.8992 71.885 60.6201 72.386C57.9293 72.6008 55.3749 73.6589 53.3204 75.4097C48.5261 79.4954 41.4746 79.4954 36.6803 75.4097C34.6258 73.6589 32.0714 72.6008 29.3806 72.386C23.1015 71.885 18.1153 66.8988 17.6143 60.6197C17.3995 57.9289 16.3415 55.3745 14.5906 53.32C10.5049 48.5257 10.5049 41.4742 14.5906 36.6799C16.3415 34.6254 17.3995 32.071 17.6143 29.3802C18.1153 23.1011 23.1015 18.115 29.3806 17.6139Z" stroke="#36F475" stroke-width="7" stroke-linecap="round" stroke-linejoin="round"/>
</svg>
