<svg width="90" height="90" viewBox="0 0 90 90" fill="none" xmlns="http://www.w3.org/2000/svg">
<path d="M36.1735 14.0667C40.9715 9.97778 48.0285 9.97778 52.8265 14.0667C54.8826 15.8188 57.439 16.8777 60.1319 17.0926C66.4159 17.5941 71.4059 22.5841 71.9074 28.8681C72.1223 31.561 73.1812 34.1174 74.9334 36.1735C79.0222 40.9715 79.0222 48.0285 74.9334 52.8265C73.1812 54.8826 72.1223 57.439 71.9074 60.1319C71.4059 66.4159 66.4159 71.4059 60.1319 71.9074C57.439 72.1223 54.8826 73.1812 52.8265 74.9334C48.0285 79.0222 40.9715 79.0222 36.1735 74.9334C34.1174 73.1812 31.561 72.1223 28.8681 71.9074C22.5841 71.4059 17.5941 66.4159 17.0926 60.1319C16.8777 57.439 15.8188 54.8826 14.0667 52.8265C9.97778 48.0285 9.97778 40.9715 14.0667 36.1735C15.8188 34.1174 16.8777 31.561 17.0926 28.8681C17.5941 22.5841 22.5841 17.5941 28.8681 17.0926C31.561 16.8777 34.1174 15.8188 36.1735 14.0667Z" stroke="#F55B4F" stroke-width="7" stroke-linecap="round" stroke-linejoin="round"/>
<path d="M37 52L44.5 44.5M44.5 44.5L52 37M44.5 44.5L37 37M44.5 44.5L52 52" stroke="#F55B4F" stroke-width="7" stroke-linecap="round" stroke-linejoin="round"/>
</svg>
